<?xml version="1.0" encoding="utf-8"?>
<!-- Generator: Adobe Illustrator 19.0.0, SVG Export Plug-In . SVG Version: 6.00 Build 0)  -->
<svg version="1.1" id="Layer_1" xmlns="http://www.w3.org/2000/svg" xmlns:xlink="http://www.w3.org/1999/xlink" x="0px" y="0px"
	 viewBox="0 0 960 960" style="enable-background:new 0 0 960 960;" xml:space="preserve">
<rect id="XMLID_4_" style="display:none;fill:#1A1A1A;" width="960" height="960"/>
<g id="XMLID_1_">
	<path id="XMLID_13_" style="fill:#FFD369;" d="M368.2,268.8c-75.9,0-137.4-61.5-137.4-137.4c0,75.9-61.5,137.4-137.4,137.4
		c75.9,0,137.4,61.5,137.4,137.4C230.8,330.3,292.3,268.8,368.2,268.8z"/>
	<path id="XMLID_2_" style="fill:#FFD369;" d="M373.2,86.3c-47.7,0-86.3-38.6-86.3-86.3c0,47.7-38.6,86.3-86.3,86.3
		c47.7,0,86.3,38.6,86.3,86.3C286.9,125,325.6,86.3,373.2,86.3z"/>
	<path id="XMLID_3_" style="fill:#FFD369;" d="M179.5,154.3c-32.9,0-59.5-26.6-59.5-59.5c0,32.9-26.6,59.5-59.5,59.5
		c32.9,0,59.5,26.6,59.5,59.5C120,181,146.6,154.3,179.5,154.3z"/>
	<path id="XMLID_6_" style="fill:#FFD369;" d="M274.3,718.8c0-212.1,172-384.1,384.1-384.1c91.4,0,175.3,31.9,241.2,85.2
		c-70.4-87.1-178.1-142.9-298.9-142.9c-212.1,0-384.1,172-384.1,384.1c0,120.8,55.7,228.5,142.9,298.9
		C306.2,894.1,274.3,810.2,274.3,718.8z"/>
</g>
</svg>
